<?xml version="1.0" encoding="utf-8"?>
<!-- Generator: Adobe Illustrator 26.5.0, SVG Export Plug-In . SVG Version: 6.00 Build 0)  -->
<svg version="1.1" id="Camada_1" xmlns="http://www.w3.org/2000/svg" xmlns:xlink="http://www.w3.org/1999/xlink" x="0px" y="0px"
	 viewBox="0 0 187.7 179.2" style="enable-background:new 0 0 187.7 179.2;" xml:space="preserve">
<style type="text/css">
	.st0{opacity:0.5;}
	.st1{fill:#811BE7;}
</style>
<g id="XMLID_5268_" class="st0">
	<g>
		<g id="XMLID_00000044138492293682270320000000506977574061360062_">
			<path id="XMLID_00000052784533037851279890000001484564412972243135_" class="st1" d="M159.5,22.7c-0.9-0.9-2.8-2.8-3.7-3.7
				c13-9.3-1.8-13-5.1-19c-5.6,5.6-12.1,10.2-20.5,13c-1.4,1.4-4.2,4.2-5.6,5.6C91.9,51.4,62.9,84,29.2,114.2
				c22.4-18.8,42.5-37.2,62.2-58.7c0.4,0.8,0.8,2,2,1.7C77.2,82.8,50.2,95,32,118.7c-0.9-0.9-2.7-2.7-3.7-3.7
				c-7.8,7-15.8,13.8-24.2,20.5c-3.1,3.1-4.1,7.6-4.1,12c28.7-15.8,52.4-40.8,77.2-62.3C67.5,95,57.2,107,45.6,115
				c-15.8,12.1-27.5,25.6-42.8,35.4c-0.9,0.5-1.7,1-2.6,1.5c0.2,2,0.4,3.8,0.7,5.5c1.8,7.4,6.9,15.3,17.2,14.4
				c1.4-1.4,4.2-4.2,4.2-4.2c2.4,1.3,4,3.6,5.6,5.8c10-8,19.8-16.3,29.7-24.5c11.8-10.8,23.9-21,37.3-29.3
				c-12.9,9.3-25.2,19.2-37.3,29.3c-9.5,8.6-18.7,17.7-28.2,26.6c1.9,2.5,3.9,4.4,7.3,3.7c5.6,0,12.6-12.6,19.1-17.2
				c19.1-11.6,34.9-29.3,53-41.9c13-9.3,23.3-21.4,33.5-33.5c13.5-17.2,34-30.3,42.8-46.5C192.5,25,175.3,16.2,159.5,22.7z"/>
		</g>
	</g>
</g>
<g>
	<path d="M44,83.4h1.6c3.3,0.3,5.6-3.9,5.8-10.8V45.5c-0.3-3.7-2-4.9-7.4-5.2v-1.1h20.6l8.8,31.3l7.7-31.3h19.4v1.1h-2.4
		c-4.1,0.1-4.5,0.4-4.5,3.2v35.8c0.2,3.3,1.1,4.1,3.9,4.1h3v1.1H74.9v-1.1h2.7c2-0.1,2.6-1.2,2.6-4.1v-32l-9.4,37.2h-7.5L52.3,47.3
		v25c-0.1,6.6,2.4,11.4,5.7,11.1h2.4v1H44V83.4z"/>
	<path d="M130,39.2v1.1h-2.5c-1.1,0-2,0.6-2,1.3c0,0.4,0.2,1,0.6,1.7l8.1,15.4l4.4-8.5c0.9-1.8,1.5-3.9,1.5-5.6c0-2.4-1.8-4.2-4-4.2
		h-1.2v-1.1h15.8v1.1h-2.2c-2.4-0.1-5.8,3.7-8.9,9.8l-4.7,9.4v21c0.1,2,1,2.8,3.7,2.8h1.9v1.1h-25.3v-1.1h2.4
		c2.4-0.1,3.6-1.2,3.6-3.1V61.1l-11-16.5c-2-3.1-3.2-4-5.2-4.3H104v-1.1H130z"/>
	<path d="M5.3,93.5h25.4v1.1H29c-1.6,0-3.1,1.2-3.1,2.6c0,0.5,0.1,1.1,0.3,1.6l9.1,32.4l6.5-25c0.4-1.6,0.6-3.1,0.6-4.7
		c0-2.6-0.8-4.5-2.3-5.6c-1.1-0.7-2.1-1-4.8-1.4v-1.1h16.2v1.1c-4.9,0.8-5.8,2-8.8,11.7l-8.8,33H23.1L10.5,97.9
		c-0.6-2-2.1-3-5.2-3.3V93.5z"/>
	<path d="M55,93.5h39.1v17.1h-0.8c0.5-8.7-7.1-16.4-15.9-16.3h-2.1v19.5h1.3c2.4,0,5.1-1.6,7-4.2c1.6-2.2,2.1-3.7,2.1-6.2v-0.6h0.9
		v24.3h-0.9v-0.7c0-2.7-0.6-4.6-2.2-6.8c-1.8-2.6-4.8-4.5-6.9-4.5h-1.3v20.7c0,1.5,1.1,2,4,2c5.4,0,8.4-1.6,11.6-6.2
		c2.8-4.3,4.3-8.4,4.7-13.7h0.9v20.8H55v-1h2.2c4.1-0.2,5-1,5-4V97.1c-0.1-2.1-1-2.4-5.3-2.5h-2V93.5z"/>
	<path d="M105.7,118.3c0.4,3.3,1.2,5.1,4.2,10.1c4.3,7.3,8.5,10.5,13.3,10.5c3,0,4.4-0.5,5.7-2.2c1.3-1.6,2-3.6,2-5.6
		c0-2.2-0.9-4.1-2.4-5.4c-2-1.7-2-1.7-13.6-5.6c-6.1-2.1-9.9-6.9-9.9-12.6c0-7.9,7.9-14.6,17.2-14.6c2,0,2.4,0.1,7.7,1.6
		c1.4,0.4,2.8,0.7,4,0.7c1.9,0,2.9-0.8,3.3-2.6h0.8v17.4h-0.8c-0.6-4.3-1.6-7-4-10.4c-2.7-3.9-6.3-5.9-10.2-5.9
		c-3.7,0-6.5,2.9-6.5,6.9c0,2,1,4,2.7,5.3c1,0.7,2,1.3,2.9,1.6l8.6,2.4c7.4,2.1,11.3,6.9,11.3,13.6c0,4.8-1.7,8.5-5.2,11.4
		c-3.7,3.1-8.1,4.7-12.8,4.7c-3.5,0-3.6,0-13.2-3.1c-0.6-0.2-1.4-0.3-2.1-0.3c-1.8,0-2.8,0.8-3.1,2.3H105v-20.4H105.7z"/>
	<path d="M145,93.5h42.7v19.1h-0.7c-0.1-4.5-1.4-7.9-4.4-12.2c-2.2-2.8-6.6-5.9-8.3-5.8h-1.1l0.1,39.8c-0.1,2,1.4,3.1,4.1,3.3h2.2
		v1.1h-27.1v-1.1h2.3c2.9-0.1,4.5-1.5,4.5-3.9V94.6h-1c-2.6,0-7.2,3.8-9.7,8.1c-2.1,3.5-2.7,5.6-2.7,9.1v0.8H145V93.5z"/>
</g>
</svg>
